<svg width="17" height="19" viewBox="0 0 17 19" fill="none" xmlns="http://www.w3.org/2000/svg">
<path d="M15.1111 13.5714V8.86667C14.6389 8.95714 14.1667 9.04762 13.6944 9.04762H13.2222V14.4762H3.77778V8.14286C3.77778 5.60952 5.85556 3.61905 8.5 3.61905C8.59444 2.44286 9.16111 1.44762 9.91667 0.633333C9.63333 0.271429 9.06667 0 8.5 0C7.46111 0 6.61111 0.814286 6.61111 1.80952V2.08095C3.77778 2.89524 1.88889 5.3381 1.88889 8.14286V13.5714L0 15.381V16.2857H17V15.381L15.1111 13.5714ZM6.61111 17.1905C6.61111 18.1857 7.46111 19 8.5 19C9.53889 19 10.3889 18.1857 10.3889 17.1905H6.61111ZM17 4.07143C17 5.79048 15.4889 7.2381 13.6944 7.2381C11.9 7.2381 10.3889 5.79048 10.3889 4.07143C10.3889 2.35238 11.9 0.904762 13.6944 0.904762C15.4889 0.904762 17 2.35238 17 4.07143Z" fill="#464948" fill-opacity="0.9"/>
</svg>
