<svg width="18" height="17" viewBox="0 0 18 17" fill="none" xmlns="http://www.w3.org/2000/svg">
<path d="M17 16L12.9501 12.2032M12.9501 12.2032C13.6001 11.5938 14.1158 10.8703 14.4675 10.0741C14.8193 9.2779 15.0004 8.42451 15.0004 7.56269C15.0004 6.70086 14.8193 5.84748 14.4675 5.05126C14.1158 4.25503 13.6001 3.53157 12.9501 2.92217C12.3001 2.31276 11.5284 1.82936 10.6791 1.49955C9.82976 1.16975 8.91948 1 8.0002 1C7.08092 1 6.17064 1.16975 5.32134 1.49955C4.47204 1.82936 3.70034 2.31277 3.05031 2.92217C1.73752 4.15291 1 5.82216 1 7.56269C1 9.30322 1.73752 10.9725 3.05031 12.2032C4.3631 13.434 6.14363 14.1254 8.0002 14.1254C9.85677 14.1254 11.6373 13.434 12.9501 12.2032Z" stroke="#BABABA" stroke-opacity="0.5" stroke-width="2" stroke-linecap="round" stroke-linejoin="round"/>
</svg>
