<svg width="14" height="18" viewBox="0 0 14 18" fill="none" xmlns="http://www.w3.org/2000/svg">
<path d="M7.01758 10.825C8.86712 10.825 10.3661 9.39817 10.3661 7.63745V3.38745C10.3661 1.62674 8.86712 0.199951 7.01758 0.199951C5.16803 0.199951 3.66909 1.62674 3.66909 3.38745V7.63745C3.66909 9.39817 5.16803 10.825 7.01758 10.825ZM13.5176 7.5995C13.5176 7.51602 13.4467 7.44772 13.36 7.44772H12.1782C12.0915 7.44772 12.0206 7.51602 12.0206 7.5995C12.0206 10.2614 9.78106 12.4187 7.01758 12.4187C4.25409 12.4187 2.01455 10.2614 2.01455 7.5995C2.01455 7.51602 1.94364 7.44772 1.85697 7.44772H0.675154C0.588487 7.44772 0.517578 7.51602 0.517578 7.5995C0.517578 10.4951 2.55842 12.9327 5.3305 13.6479C5.83565 13.7782 6.2297 14.2086 6.2297 14.7303C6.2297 15.2979 5.76961 15.758 5.20205 15.758H3.36773C3.09788 15.758 2.88121 16.0293 2.88121 16.3651V17.0482C2.88121 17.1316 2.93637 17.2 3.00334 17.2H11.0318C11.0988 17.2 11.1539 17.1316 11.1539 17.0482V16.3651C11.1539 16.0293 10.9373 15.758 10.6674 15.758H8.74391C8.18211 15.758 7.72667 15.3026 7.72667 14.7407C7.72667 14.22 8.12291 13.7917 8.62857 13.6673C11.4389 12.9761 13.5176 10.522 13.5176 7.5995Z" fill="#808080" fill-opacity="0.5"/>
</svg>
