<svg width="46" height="45" viewBox="0 0 46 45" fill="none" xmlns="http://www.w3.org/2000/svg">
<rect x="0.5" width="45" height="45" rx="22.5" fill="#0164E5" fill-opacity="0.2"/>
<path d="M22 24.5H24C24.2833 24.5 24.521 24.404 24.713 24.212C24.905 24.02 25.0007 23.7827 25 23.5C24.9993 23.2173 24.9033 22.98 24.712 22.788C24.5207 22.596 24.2833 22.5 24 22.5H22C21.7167 22.5 21.4793 22.596 21.288 22.788C21.0967 22.98 21.0007 23.2173 21 23.5C20.9993 23.7827 21.0953 24.0203 21.288 24.213C21.4807 24.4057 21.718 24.5013 22 24.5ZM22 21.5H28C28.2833 21.5 28.521 21.404 28.713 21.212C28.905 21.02 29.0007 20.7827 29 20.5C28.9993 20.2173 28.9033 19.98 28.712 19.788C28.5207 19.596 28.2833 19.5 28 19.5H22C21.7167 19.5 21.4793 19.596 21.288 19.788C21.0967 19.98 21.0007 20.2173 21 20.5C20.9993 20.7827 21.0953 21.0203 21.288 21.213C21.4807 21.4057 21.718 21.5013 22 21.5ZM22 18.5H28C28.2833 18.5 28.521 18.404 28.713 18.212C28.905 18.02 29.0007 17.7827 29 17.5C28.9993 17.2173 28.9033 16.98 28.712 16.788C28.5207 16.596 28.2833 16.5 28 16.5H22C21.7167 16.5 21.4793 16.596 21.288 16.788C21.0967 16.98 21.0007 17.2173 21 17.5C20.9993 17.7827 21.0953 18.0203 21.288 18.213C21.4807 18.4057 21.718 18.5013 22 18.5ZM19 28.5C18.45 28.5 17.9793 28.3043 17.588 27.913C17.1967 27.5217 17.0007 27.0507 17 26.5V14.5C17 13.95 17.196 13.4793 17.588 13.088C17.98 12.6967 18.4507 12.5007 19 12.5H31C31.55 12.5 32.021 12.696 32.413 13.088C32.805 13.48 33.0007 13.9507 33 14.5V26.5C33 27.05 32.8043 27.521 32.413 27.913C32.0217 28.305 31.5507 28.5007 31 28.5H19ZM19 26.5H31V14.5H19V26.5ZM15 32.5C14.45 32.5 13.9793 32.3043 13.588 31.913C13.1967 31.5217 13.0007 31.0507 13 30.5V17.5C13 17.2167 13.096 16.9793 13.288 16.788C13.48 16.5967 13.7173 16.5007 14 16.5C14.2827 16.4993 14.5203 16.5953 14.713 16.788C14.9057 16.9807 15.0013 17.218 15 17.5V30.5H28C28.2833 30.5 28.521 30.596 28.713 30.788C28.905 30.98 29.0007 31.2173 29 31.5C28.9993 31.7827 28.9033 32.0203 28.712 32.213C28.5207 32.4057 28.2833 32.5013 28 32.5H15Z" fill="#0164E5"/>
</svg>
