<svg width="46" height="45" viewBox="0 0 46 45" fill="none" xmlns="http://www.w3.org/2000/svg">
<rect x="0.5" width="45" height="45" rx="22.5" fill="#F65454" fill-opacity="0.2"/>
<path fill-rule="evenodd" clip-rule="evenodd" d="M25.1667 12.217C25.2431 12.0333 25.3893 11.8875 25.5732 11.8117C25.7571 11.7358 25.9635 11.7361 26.1472 11.8125C26.3309 11.8889 26.4767 12.0351 26.5525 12.219C26.6284 12.4029 26.6281 12.6093 26.5517 12.793L25.5117 15.293C25.4353 15.4767 25.2891 15.6225 25.1052 15.6983C24.9213 15.7742 24.7149 15.7739 24.5312 15.6975C24.3475 15.6211 24.2017 15.4749 24.1259 15.291C24.05 15.1072 24.0503 14.9007 24.1267 14.717L25.1667 12.217ZM28.8137 12.202C28.8526 12.1107 28.9093 12.0279 28.9805 11.9587C29.0517 11.8894 29.1359 11.8349 29.2283 11.7985C29.3206 11.762 29.4193 11.7443 29.5186 11.7462C29.6179 11.7482 29.7158 11.7699 29.8067 11.81C29.8975 11.8502 29.9795 11.9079 30.0478 11.98C30.1162 12.052 30.1695 12.137 30.2048 12.2298C30.24 12.3226 30.2565 12.4216 30.2532 12.5208C30.25 12.6201 30.227 12.7177 30.1857 12.808L26.7507 20.588C28.0452 21.2994 29.0707 22.4157 29.6698 23.7658C30.2689 25.116 30.4086 26.6254 30.0675 28.0625C29.7264 29.4997 28.9232 30.7853 27.7813 31.7222C26.6393 32.659 25.2216 33.1955 23.7455 33.2492C22.2694 33.3029 20.8164 32.871 19.6093 32.0196C18.4023 31.1682 17.5078 29.9444 17.0631 28.5359C16.6184 27.1273 16.648 25.6118 17.1474 24.2217C17.6468 22.8315 18.5883 21.6436 19.8277 20.84L15.8277 12.84C15.7828 12.7518 15.7558 12.6556 15.7483 12.5569C15.7407 12.4582 15.7528 12.359 15.7838 12.265C15.8148 12.171 15.8641 12.084 15.9288 12.0092C15.9936 11.9343 16.0725 11.873 16.1611 11.8288C16.2496 11.7846 16.3461 11.7583 16.4448 11.7515C16.5436 11.7448 16.6427 11.7576 16.7365 11.7894C16.8302 11.8211 16.9168 11.871 16.9911 11.9364C17.0655 12.0017 17.1262 12.0811 17.1697 12.17L21.1697 20.168C21.7724 19.9462 22.4039 19.8121 23.0447 19.77L19.6597 12.835C19.5724 12.6563 19.5598 12.4502 19.6245 12.2621C19.6892 12.074 19.8259 11.9193 20.0047 11.832C20.1835 11.7448 20.3896 11.7321 20.5776 11.7968C20.7657 11.8615 20.9204 11.9983 21.0077 12.177L24.7627 19.874C24.9667 19.9133 25.1667 19.961 25.3627 20.017L28.8137 12.202ZM23.5497 23.405C23.6611 23.3214 23.7936 23.2705 23.9323 23.258C24.0711 23.2455 24.2105 23.2719 24.3351 23.3342C24.4597 23.3965 24.5645 23.4922 24.6377 23.6107C24.7109 23.7292 24.7497 23.8657 24.7497 24.005V29.005C24.7497 29.2039 24.6707 29.3947 24.53 29.5353C24.3894 29.676 24.1986 29.755 23.9997 29.755C23.8008 29.755 23.61 29.676 23.4694 29.5353C23.3287 29.3947 23.2497 29.2039 23.2497 29.005V25.505L22.4497 26.105C22.2906 26.2244 22.0905 26.2756 21.8936 26.2475C21.6967 26.2193 21.519 26.1141 21.3997 25.955C21.2804 25.7959 21.2291 25.5959 21.2572 25.3989C21.2854 25.202 21.3906 25.0244 21.5497 24.905L23.5497 23.405Z" fill="#F65454"/>
</svg>
