<svg width="46" height="45" viewBox="0 0 46 45" fill="none" xmlns="http://www.w3.org/2000/svg">
<rect x="0.5" width="45" height="45" rx="22.5" fill="#0164E5" fill-opacity="0.2"/>
<path d="M20.7773 17.4999C20.7773 17.3525 20.8359 17.2112 20.9401 17.1071C21.0442 17.0029 21.1856 16.9443 21.3329 16.9443H25.7773C25.9247 16.9443 26.066 17.0029 26.1702 17.1071C26.2744 17.2112 26.3329 17.3525 26.3329 17.4999C26.3329 17.6472 26.2744 17.7885 26.1702 17.8927C26.066 17.9969 25.9247 18.0554 25.7773 18.0554H21.3329C21.1856 18.0554 21.0442 17.9969 20.9401 17.8927C20.8359 17.7885 20.7773 17.6472 20.7773 17.4999ZM21.3329 19.1666C21.1856 19.1666 21.0442 19.2251 20.9401 19.3293C20.8359 19.4335 20.7773 19.5748 20.7773 19.7221C20.7773 19.8695 20.8359 20.0108 20.9401 20.115C21.0442 20.2191 21.1856 20.2777 21.3329 20.2777H25.7773C25.9247 20.2777 26.066 20.2191 26.1702 20.115C26.2744 20.0108 26.3329 19.8695 26.3329 19.7221C26.3329 19.5748 26.2744 19.4335 26.1702 19.3293C26.066 19.2251 25.9247 19.1666 25.7773 19.1666H21.3329ZM20.7773 24.7221C20.7773 24.5748 20.8359 24.4335 20.9401 24.3293C21.0442 24.2251 21.1856 24.1666 21.3329 24.1666H25.7773C25.9247 24.1666 26.066 24.2251 26.1702 24.3293C26.2744 24.4335 26.3329 24.5748 26.3329 24.7221C26.3329 24.8695 26.2744 25.0108 26.1702 25.115C26.066 25.2191 25.9247 25.2777 25.7773 25.2777H21.3329C21.1856 25.2777 21.0442 25.2191 20.9401 25.115C20.8359 25.0108 20.7773 24.8695 20.7773 24.7221ZM21.3329 26.3888C21.1856 26.3888 21.0442 26.4473 20.9401 26.5515C20.8359 26.6557 20.7773 26.797 20.7773 26.9443C20.7773 27.0917 20.8359 27.233 20.9401 27.3372C21.0442 27.4414 21.1856 27.4999 21.3329 27.4999H25.7773C25.9247 27.4999 26.066 27.4414 26.1702 27.3372C26.2744 27.233 26.3329 27.0917 26.3329 26.9443C26.3329 26.797 26.2744 26.6557 26.1702 26.5515C26.066 26.4473 25.9247 26.3888 25.7773 26.3888H21.3329Z" fill="#0164E5"/>
<path fill-rule="evenodd" clip-rule="evenodd" d="M15.2227 24.1666C15.2227 24.0193 15.2812 23.878 15.3854 23.7738C15.4896 23.6696 15.6309 23.6111 15.7782 23.6111H18.556C18.7033 23.6111 18.8446 23.6696 18.9488 23.7738C19.053 23.878 19.1115 24.0193 19.1115 24.1666V26.9444C19.1115 27.0918 19.053 27.2331 18.9488 27.3373C18.8446 27.4414 18.7033 27.5 18.556 27.5H15.7782C15.6309 27.5 15.4896 27.4414 15.3854 27.3373C15.2812 27.2331 15.2227 27.0918 15.2227 26.9444V24.1666ZM16.3338 24.7222V26.3889H18.0004V24.7222H16.3338Z" fill="#0164E5"/>
<path d="M19.5034 17.8929C19.6046 17.7881 19.6606 17.6478 19.6593 17.5021C19.658 17.3565 19.5996 17.2171 19.4966 17.1141C19.3936 17.0111 19.2542 16.9527 19.1086 16.9514C18.9629 16.9502 18.8226 17.0062 18.7178 17.1074L16.8884 18.9368L16.17 18.2185C16.0652 18.1173 15.9249 18.0613 15.7792 18.0625C15.6336 18.0638 15.4942 18.1222 15.3912 18.2252C15.2882 18.3282 15.2298 18.4676 15.2285 18.6133C15.2273 18.7589 15.2833 18.8993 15.3845 19.004L16.8884 20.5079L19.5034 17.8929Z" fill="#0164E5"/>
<path fill-rule="evenodd" clip-rule="evenodd" d="M15.2222 12.5C14.6329 12.5 14.0676 12.7341 13.6509 13.1509C13.2341 13.5676 13 14.1329 13 14.7222V30.2778C13 30.8671 13.2341 31.4324 13.6509 31.8491C14.0676 32.2659 14.6329 32.5 15.2222 32.5H26.3333C26.9227 32.5 27.4879 32.2659 27.9047 31.8491C28.3214 31.4324 28.5556 30.8671 28.5556 30.2778V14.7222C28.5556 14.1329 28.3214 13.5676 27.9047 13.1509C27.4879 12.7341 26.9227 12.5 26.3333 12.5H15.2222ZM14.1111 14.7222C14.1111 14.4275 14.2282 14.1449 14.4365 13.9365C14.6449 13.7282 14.9275 13.6111 15.2222 13.6111H26.3333C26.628 13.6111 26.9106 13.7282 27.119 13.9365C27.3274 14.1449 27.4444 14.4275 27.4444 14.7222V30.2778C27.4444 30.5725 27.3274 30.8551 27.119 31.0635C26.9106 31.2718 26.628 31.3889 26.3333 31.3889H15.2222C14.9275 31.3889 14.6449 31.2718 14.4365 31.0635C14.2282 30.8551 14.1111 30.5725 14.1111 30.2778V14.7222ZM29.6667 18.0556C29.6667 17.6135 29.8423 17.1896 30.1548 16.877C30.4674 16.5645 30.8913 16.3889 31.3333 16.3889C31.7754 16.3889 32.1993 16.5645 32.5118 16.877C32.8244 17.1896 33 17.6135 33 18.0556V29.335L31.3333 31.835L29.6667 29.335V18.0556ZM31.3333 17.5C31.186 17.5 31.0447 17.5585 30.9405 17.6627C30.8363 17.7669 30.7778 17.9082 30.7778 18.0556V19.1667H31.8889V18.0556C31.8889 17.9082 31.8304 17.7669 31.7262 17.6627C31.622 17.5585 31.4807 17.5 31.3333 17.5ZM31.3333 29.8317L30.7778 28.9983V20.2778H31.8889V28.9983L31.3333 29.8317Z" fill="#0164E5"/>
</svg>
