<svg width="46" height="45" viewBox="0 0 46 45" fill="none" xmlns="http://www.w3.org/2000/svg">
<rect x="0.5" width="45" height="45" rx="22.5" fill="#F65454" fill-opacity="0.2"/>
<path d="M16.5 16.4995C16.5 15.8365 16.7634 15.2006 17.2322 14.7317C17.7011 14.2629 18.337 13.9995 19 13.9995C19.663 13.9995 20.2989 14.2629 20.7678 14.7317C21.2366 15.2006 21.5 15.8365 21.5 16.4995C21.5 17.1626 21.2366 17.7984 20.7678 18.2673C20.2989 18.7361 19.663 18.9995 19 18.9995C18.337 18.9995 17.7011 18.7361 17.2322 18.2673C16.7634 17.7984 16.5 17.1626 16.5 16.4995ZM19 12.4995C17.9391 12.4995 16.9217 12.9209 16.1716 13.6711C15.4214 14.4212 15 15.4386 15 16.4995C15 17.5604 15.4214 18.5778 16.1716 19.3279C16.9217 20.0781 17.9391 20.4995 19 20.4995C20.0609 20.4995 21.0783 20.0781 21.8284 19.3279C22.5786 18.5778 23 17.5604 23 16.4995C23 15.4386 22.5786 14.4212 21.8284 13.6711C21.0783 12.9209 20.0609 12.4995 19 12.4995ZM26.5 17.4995C26.5 17.1017 26.658 16.7202 26.9393 16.4389C27.2206 16.1575 27.6022 15.9995 28 15.9995C28.3978 15.9995 28.7794 16.1575 29.0607 16.4389C29.342 16.7202 29.5 17.1017 29.5 17.4995C29.5 17.8973 29.342 18.2789 29.0607 18.5602C28.7794 18.8415 28.3978 18.9995 28 18.9995C27.6022 18.9995 27.2206 18.8415 26.9393 18.5602C26.658 18.2789 26.5 17.8973 26.5 17.4995ZM28 14.4995C27.2044 14.4995 26.4413 14.8156 25.8787 15.3782C25.3161 15.9408 25 16.7039 25 17.4995C25 18.2952 25.3161 19.0582 25.8787 19.6208C26.4413 20.1834 27.2044 20.4995 28 20.4995C28.7956 20.4995 29.5587 20.1834 30.1213 19.6208C30.6839 19.0582 31 18.2952 31 17.4995C31 16.7039 30.6839 15.9408 30.1213 15.3782C29.5587 14.8156 28.7956 14.4995 28 14.4995ZM15.25 22.4995C14.6533 22.4995 14.081 22.7366 13.659 23.1585C13.2371 23.5805 13 24.1528 13 24.7495V25.0275C13.001 25.097 13.0057 25.1665 13.014 25.2355C13.0971 25.9795 13.3645 26.691 13.792 27.3055C14.61 28.4735 16.172 29.4995 19 29.4995C21.828 29.4995 23.39 28.4745 24.208 27.3045C24.6355 26.69 24.9029 25.9785 24.986 25.2345C24.9931 25.1657 24.9977 25.0967 25 25.0275V24.7495C25 24.1528 24.7629 23.5805 24.341 23.1585C23.919 22.7366 23.3467 22.4995 22.75 22.4995H15.25ZM14.5 25.0065V24.7495C14.5 24.5506 14.579 24.3598 14.7197 24.2192C14.8603 24.0785 15.0511 23.9995 15.25 23.9995H22.75C22.9489 23.9995 23.1397 24.0785 23.2803 24.2192C23.421 24.3598 23.5 24.5506 23.5 24.7495V25.0065L23.493 25.0865C23.4355 25.5744 23.2589 26.0408 22.979 26.4445C22.486 27.1495 21.422 27.9995 19 27.9995C16.578 27.9995 15.514 27.1495 15.02 26.4445C14.7403 26.0404 14.5641 25.5737 14.507 25.0855L14.5 25.0065ZM29.192 23.4945L29.668 22.2895C29.91 21.6755 30.588 21.3565 31.216 21.5615L31.647 21.7025C32.371 21.9395 32.973 22.5085 32.997 23.2715C33.097 26.3815 30.521 30.8545 27.784 32.3265C27.111 32.6885 26.316 32.4495 25.749 31.9355L25.412 31.6305C25.1764 31.4172 25.0306 31.1223 25.0042 30.8055C24.9779 30.4888 25.0729 30.1738 25.27 29.9245L26.07 28.9145C26.36 28.5475 26.837 28.3845 27.29 28.4945L28.582 28.8075C29.6847 28.0775 30.276 27.0512 30.356 25.7285L29.439 24.7645C29.2808 24.5985 29.1735 24.3907 29.1297 24.1657C29.0859 23.9406 29.1075 23.7077 29.192 23.4945Z" fill="#F65454"/>
</svg>
