<svg width="46" height="45" viewBox="0 0 46 45" fill="none" xmlns="http://www.w3.org/2000/svg">
<rect x="0.5" width="45" height="45" rx="22.5" fill="#0164E5" fill-opacity="0.2"/>
<path d="M27.8259 26.8579C28.8897 26.2827 28.7518 24.0663 27.519 21.904C26.9901 20.9729 26.3399 20.2189 25.6897 19.6918C24.9121 20.2531 23.9703 20.5575 23.002 20.5605C22.0323 20.5584 21.0888 20.2539 20.3101 19.6918C19.6598 20.2189 19.0113 20.9737 18.4807 21.904C17.247 24.0655 17.1109 26.2827 18.1773 26.8579C18.6524 27.121 19.1535 26.9237 19.6702 26.4396C19.5735 26.9611 19.525 27.4901 19.5255 28.02C19.5255 30.4979 20.5138 32.5 21.7302 32.5C22.4636 32.5 22.8269 31.7705 23.0012 30.6547C23.1746 31.7629 23.5387 32.5 24.267 32.5C25.4781 32.5 26.4743 30.497 26.4743 28.02C26.4743 27.4634 26.4205 26.9321 26.3286 26.4404C26.8488 26.9254 27.3482 27.1261 27.825 26.8596L27.8259 26.8579ZM23.0003 19.7171C23.4922 19.7243 23.9806 19.6362 24.4372 19.458C24.8938 19.2797 25.3093 19.015 25.6597 18.6791C26.0101 18.3432 26.2883 17.9428 26.4782 17.5013C26.668 17.0598 26.7657 16.586 26.7655 16.1075C26.7653 15.6289 26.6673 15.1552 26.4771 14.7139C26.287 14.2725 26.0085 13.8723 25.6579 13.5367C25.3072 13.201 24.8915 12.9365 24.4348 12.7586C23.9781 12.5807 23.4896 12.493 22.9977 12.5004C22.0237 12.5153 21.0948 12.9021 20.4116 13.5775C19.7283 14.2528 19.3456 15.1625 19.3459 16.11C19.3462 17.0576 19.7297 17.967 20.4134 18.6419C21.0972 19.3168 22.0263 19.703 23.0003 19.7171ZM30.4511 22.006C31.2434 21.9835 31.9954 21.6615 32.5476 21.1084C33.0998 20.5553 33.4087 19.8147 33.4087 19.0437C33.4087 18.2727 33.0998 17.532 32.5476 16.979C31.9954 16.4259 31.2434 16.1039 30.4511 16.0814C29.6432 16.0815 28.8685 16.3938 28.2973 16.9496C27.7261 17.5053 27.4053 18.2591 27.4054 19.045C27.4055 19.8308 27.7266 20.5845 28.2979 21.1401C28.8692 21.6957 29.6441 22.0078 30.452 22.0077L30.4511 22.006ZM34.1618 23.8024C33.7265 23.0366 33.1942 22.4176 32.6602 21.9849C32.0213 22.4454 31.2479 22.6951 30.4528 22.6976C29.7974 22.6976 29.1871 22.523 28.653 22.2337C29.083 23.1555 29.3492 24.0891 29.3986 24.9241C29.4801 26.2026 29.0691 27.1505 28.2472 27.5933C28.0712 27.6877 27.8797 27.7516 27.6811 27.7822C27.6317 28.1128 27.5979 28.4569 27.5979 28.8196C27.5979 30.8546 28.4085 32.4983 29.4081 32.4983C30.0098 32.4983 30.3098 31.8995 30.452 30.9836C30.5933 31.8945 30.8924 32.4983 31.4923 32.4983C32.485 32.4983 33.3043 30.8538 33.3043 28.8212C33.3043 28.3633 33.2584 27.9273 33.183 27.5225C33.6095 27.9214 34.0205 28.0858 34.4123 27.8666C35.2854 27.3943 35.1727 25.5743 34.1609 23.8015L34.1618 23.8024ZM15.5495 22.006C16.1516 22.0057 16.7401 21.8317 17.2406 21.506C17.7411 21.1804 18.1311 20.7177 18.3613 20.1764C18.5915 19.6352 18.6516 19.0397 18.5339 18.4652C18.4162 17.8908 18.1261 17.3632 17.7002 16.9491C17.2743 16.5351 16.7317 16.2532 16.1411 16.139C15.5506 16.0249 14.9384 16.0836 14.3822 16.3078C13.8259 16.5321 13.3505 16.9117 13.016 17.3987C12.6815 17.8858 12.5029 18.4584 12.5029 19.0441C12.5032 19.83 12.8242 20.5837 13.3955 21.1394C13.9668 21.6952 14.7416 22.0075 15.5495 22.0077V22.006ZM17.7473 27.5908C16.3671 26.8444 16.2405 24.6188 17.3519 22.232C16.8026 22.5355 16.1821 22.6961 15.5504 22.6984C14.7215 22.6984 13.9621 22.4285 13.3396 21.9849C12.8064 22.4167 12.2749 23.0358 11.838 23.8007C10.8262 25.5751 10.7152 27.3951 11.5891 27.8657C11.9793 28.0833 12.3911 27.9205 12.8151 27.5233C12.7379 27.9516 12.6988 28.3856 12.698 28.8204C12.698 30.8546 13.5086 32.4975 14.5083 32.4975C15.1099 32.4975 15.4099 31.8987 15.5521 30.9836C15.6951 31.8945 15.9943 32.4983 16.5925 32.4983C17.5869 32.4983 18.4045 30.8538 18.4045 28.8212C18.4045 28.4561 18.3698 28.1111 18.3204 27.7805C18.1196 27.7501 17.9259 27.6856 17.7482 27.5899L17.7473 27.5908Z" fill="#0164E5"/>
</svg>
